<svg xmlns="http://www.w3.org/2000/svg" viewBox="0 0 64 64">
  <defs>
    <linearGradient id="bg" x1="0%" y1="0%" x2="100%" y2="100%">
      <stop offset="0%" stop-color="#f4c84d" />
      <stop offset="100%" stop-color="#b57a09" />
    </linearGradient>
    <linearGradient id="leaf" x1="0%" y1="0%" x2="100%" y2="100%">
      <stop offset="0%" stop-color="#42c779" />
      <stop offset="100%" stop-color="#218b55" />
    </linearGradient>
  </defs>

  <rect x="4" y="4" width="56" height="56" rx="18" fill="url(#bg)" />
  <circle cx="32" cy="32" r="19" fill="rgba(255,255,255,0.14)" />

  <path
    d="M23 40c0-9 7-16 16-16 2 0 4 0 6 1-3 2-5 5-6 9-2 6-7 10-13 10-1 0-2 0-3-1 0-1 0-2 0-3z"
    fill="#fff5d8"
  />

  <path
    d="M27 44c6 0 11-4 13-11 1-3 3-6 6-7 1 2 2 4 2 7 0 9-7 16-16 16-3 0-5-1-7-2 0-1 1-2 2-3z"
    fill="url(#leaf)"
  />

  <path
    d="M34 24c-1 8-5 14-12 18"
    fill="none"
    stroke="#ffffff"
    stroke-linecap="round"
    stroke-width="2.5"
    opacity="0.8"
  />
</svg>
